<svg width="38" height="41" viewBox="0 0 38 41" fill="none" xmlns="http://www.w3.org/2000/svg">
<mask id="path-1-outside-1_24_2" maskUnits="userSpaceOnUse" x="0" y="0" width="38" height="41" fill="black">
<rect fill="white" width="38" height="41"/>
<path d="M10 37H13V40H10H7H4H1V37V34V31V28V25V22V19V16V13V10V7V4V1H4H7H10H13V4H10H7H4V7V10V13V16V19V22V25V28V31V34V37H7H10ZM34 40H31H28H25V37H28H31H34V34V31V28V25V22V19V16V13V10V7V4H31H28H25V1H28H31H34H37V4V7V10V13V16V19V22V25V28V31V34V37V40H34Z"/>
</mask>
<path d="M10 37H13V40H10H7H4H1V37V34V31V28V25V22V19V16V13V10V7V4V1H4H7H10H13V4H10H7H4V7V10V13V16V19V22V25V28V31V34V37H7H10ZM34 40H31H28H25V37H28H31H34V34V31V28V25V22V19V16V13V10V7V4H31H28H25V1H28H31H34H37V4V7V10V13V16V19V22V25V28V31V34V37V40H34Z" fill="#18CF00"/>
<path d="M13 37H14V36H13V37ZM13 40V41H14V40H13ZM1 40H0V41H1V40ZM1 1V0H0V1H1ZM13 1H14V0H13V1ZM13 4V5H14V4H13ZM4 4V3H3V4H4ZM4 37H3V38H4V37ZM10 37V38H13V37V36H10V37ZM13 37H12V40H13H14V37H13ZM13 40V39H10V40V41H13V40ZM10 40V39H7V40V41H10V40ZM7 40V39H4V40V41H7V40ZM4 40V39H1V40V41H4V40ZM1 40H2V37H1H0V40H1ZM1 37H2V34H1H0V37H1ZM1 34H2V31H1H0V34H1ZM1 31H2V28H1H0V31H1ZM1 28H2V25H1H0V28H1ZM1 25H2V22H1H0V25H1ZM1 22H2V19H1H0V22H1ZM1 19H2V16H1H0V19H1ZM1 16H2V13H1H0V16H1ZM1 13H2V10H1H0V13H1ZM1 10H2V7H1H0V10H1ZM1 7H2V4H1H0V7H1ZM1 4H2V1H1H0V4H1ZM1 1V2H4V1V0H1V1ZM4 1V2H7V1V0H4V1ZM7 1V2H10V1V0H7V1ZM10 1V2H13V1V0H10V1ZM13 1H12V4H13H14V1H13ZM13 4V3H10V4V5H13V4ZM10 4V3H7V4V5H10V4ZM7 4V3H4V4V5H7V4ZM4 4H3V7H4H5V4H4ZM4 7H3V10H4H5V7H4ZM4 10H3V13H4H5V10H4ZM4 13H3V16H4H5V13H4ZM4 16H3V19H4H5V16H4ZM4 19H3V22H4H5V19H4ZM4 22H3V25H4H5V22H4ZM4 25H3V28H4H5V25H4ZM4 28H3V31H4H5V28H4ZM4 31H3V34H4H5V31H4ZM4 34H3V37H4H5V34H4ZM4 37V38H7V37V36H4V37ZM7 37V38H10V37V36H7V37ZM25 40H24V41H25V40ZM25 37V36H24V37H25ZM34 37V38H35V37H34ZM34 4H35V3H34V4ZM25 4H24V5H25V4ZM25 1V0H24V1H25ZM37 1H38V0H37V1ZM37 40V41H38V40H37ZM34 40V39H31V40V41H34V40ZM31 40V39H28V40V41H31V40ZM28 40V39H25V40V41H28V40ZM25 40H26V37H25H24V40H25ZM25 37V38H28V37V36H25V37ZM28 37V38H31V37V36H28V37ZM31 37V38H34V37V36H31V37ZM34 37H35V34H34H33V37H34ZM34 34H35V31H34H33V34H34ZM34 31H35V28H34H33V31H34ZM34 28H35V25H34H33V28H34ZM34 25H35V22H34H33V25H34ZM34 22H35V19H34H33V22H34ZM34 19H35V16H34H33V19H34ZM34 16H35V13H34H33V16H34ZM34 13H35V10H34H33V13H34ZM34 10H35V7H34H33V10H34ZM34 7H35V4H34H33V7H34ZM34 4V3H31V4V5H34V4ZM31 4V3H28V4V5H31V4ZM28 4V3H25V4V5H28V4ZM25 4H26V1H25H24V4H25ZM25 1V2H28V1V0H25V1ZM28 1V2H31V1V0H28V1ZM31 1V2H34V1V0H31V1ZM34 1V2H37V1V0H34V1ZM37 1H36V4H37H38V1H37ZM37 4H36V7H37H38V4H37ZM37 7H36V10H37H38V7H37ZM37 10H36V13H37H38V10H37ZM37 13H36V16H37H38V13H37ZM37 16H36V19H37H38V16H37ZM37 19H36V22H37H38V19H37ZM37 22H36V25H37H38V22H37ZM37 25H36V28H37H38V25H37ZM37 28H36V31H37H38V28H37ZM37 31H36V34H37H38V31H37ZM37 34H36V37H37H38V34H37ZM37 37H36V40H37H38V37H37ZM37 40V39H34V40V41H37V40Z" fill="#18CF00" mask="url(#path-1-outside-1_24_2)"/>
</svg>
